<?xml version="1.0" standalone="no"?>
<!DOCTYPE svg PUBLIC "-//W3C//DTD SVG 20010904//EN"
 "http://www.w3.org/TR/2001/REC-SVG-20010904/DTD/svg10.dtd">
<svg version="1.0" xmlns="http://www.w3.org/2000/svg"
 width="1024.000000pt" height="1024.000000pt" viewBox="0 0 1024.000000 1024.000000"
 preserveAspectRatio="xMidYMid meet">

<g transform="translate(0.000000,1024.000000) scale(0.100000,-0.100000)"
fill="#000000" stroke="none">
<path d="M4915 7646 c-439 -46 -779 -156 -1137 -369 -622 -369 -1048 -1005
-1180 -1763 -20 -113 -23 -162 -22 -394 0 -226 4 -283 22 -390 43 -246 128
-514 222 -701 122 -246 390 -610 546 -745 222 -190 480 -357 705 -455 198 -86
498 -167 734 -199 133 -18 372 -23 505 -11 452 39 884 184 1225 411 336 223
578 474 776 806 383 643 462 1394 220 2095 -73 211 -166 400 -288 588 -306
470 -749 819 -1263 993 -341 116 -746 166 -1065 134z m480 -347 c411 -48 785
-203 1120 -465 256 -199 533 -572 656 -881 65 -165 114 -346 140 -518 21 -135
18 -511 -5 -648 -62 -379 -223 -739 -464 -1038 -81 -100 -290 -303 -383 -372
-164 -121 -316 -203 -519 -282 -256 -99 -468 -142 -750 -152 -536 -18 -1061
157 -1475 490 -175 141 -396 401 -520 611 -260 442 -341 939 -249 1521 24 152
98 378 170 520 125 245 228 391 393 556 109 109 167 156 294 243 509 347 1022
481 1592 415z"/>
<path d="M4545 6551 c-132 -5 -177 -10 -200 -23 -34 -19 -87 -72 -104 -105 -8
-16 -11 -373 -11 -1289 0 -1263 0 -1268 21 -1311 24 -49 62 -84 131 -119 l50
-25 456 4 c506 4 507 5 664 73 159 70 283 172 344 284 14 25 35 59 48 76 37
52 96 232 105 321 10 93 -1 237 -24 339 -20 90 -89 210 -172 303 l-62 68 23
22 c61 57 140 186 178 287 51 138 63 229 48 359 -16 140 -34 203 -90 315 -103
206 -243 321 -485 401 -67 22 -84 23 -410 24 -187 1 -416 -1 -510 -4z m816
-357 c104 -30 185 -90 249 -183 50 -75 70 -138 77 -241 13 -195 -78 -346 -257
-428 -51 -24 -67 -26 -223 -29 -188 -3 -215 -10 -268 -70 -37 -43 -49 -72 -49
-122 0 -47 44 -116 96 -151 37 -25 41 -25 238 -26 240 -1 273 -10 357 -102 62
-67 86 -115 105 -201 25 -118 12 -232 -38 -338 -33 -70 -139 -171 -223 -212
-65 -32 -79 -35 -205 -42 -74 -4 -249 -8 -387 -8 l-253 -1 0 1085 0 1085 363
0 c302 0 373 -3 418 -16z"/>
<path d="M6573 5400 c-94 -20 -195 -96 -234 -178 -30 -63 -31 -168 -2 -233 50
-112 148 -179 274 -187 67 -4 83 -1 138 23 72 33 118 80 163 167 26 52 32 74
31 124 -2 184 -183 323 -370 284z"/>
<path d="M3750 5356 c0 -2 8 -10 18 -17 15 -13 16 -12 3 4 -13 16 -21 21 -21
13z"/>
</g>
</svg>
