<?xml version="1.0" standalone="no"?>
<!DOCTYPE svg PUBLIC "-//W3C//DTD SVG 20010904//EN"
 "http://www.w3.org/TR/2001/REC-SVG-20010904/DTD/svg10.dtd">
<svg version="1.0" xmlns="http://www.w3.org/2000/svg"
 width="1024.000000pt" height="1024.000000pt" viewBox="0 0 1024.000000 1024.000000"
 preserveAspectRatio="xMidYMid meet">

<g transform="translate(0.000000,1024.000000) scale(0.100000,-0.100000)"
fill="#000000" stroke="none">
<path d="M5045 7409 c-398 -48 -830 -204 -1154 -419 -496 -328 -874 -835
-1032 -1385 -189 -656 -132 -1312 166 -1905 128 -255 312 -506 516 -706 302
-294 741 -535 1157 -635 238 -57 342 -71 577 -76 240 -6 361 5 590 53 899 185
1628 838 1915 1714 88 268 124 502 124 805 0 253 -15 386 -68 600 -116 466
-324 846 -646 1178 -266 275 -596 488 -973 627 -164 60 -282 91 -484 126 -125
23 -183 27 -378 30 -126 1 -266 -2 -310 -7z m460 -379 c408 -39 830 -200 1151
-441 378 -283 668 -709 784 -1150 168 -640 46 -1335 -328 -1861 -93 -130 -281
-333 -397 -428 -219 -179 -546 -342 -835 -415 -201 -51 -341 -68 -550 -69
-282 0 -513 40 -741 129 -52 20 -116 42 -144 47 -122 25 -234 62 -314 103
-161 83 -307 219 -399 370 -20 33 -70 105 -113 160 -259 338 -425 742 -468
1137 -24 218 -8 517 40 732 91 410 370 891 673 1159 416 367 1078 580 1641
527z"/>
<path d="M4265 6547 c-162 -42 -300 -171 -365 -342 -33 -85 -34 -241 -2 -341
40 -130 144 -254 262 -314 98 -49 161 -63 280 -58 103 3 110 5 195 47 116 57
191 132 246 247 l41 84 346 0 c197 0 366 -5 391 -11 128 -29 249 -126 308
-246 33 -67 38 -85 41 -170 4 -79 1 -103 -18 -156 -53 -145 -150 -240 -293
-287 -27 -8 -168 -12 -510 -13 l-472 -2 -3 183 c-1 100 -5 182 -8 182 -2 0
-22 -9 -44 -20 -59 -30 -156 -50 -248 -50 l-82 0 2 -472 3 -471 70 2 c79 2
187 -18 258 -48 l47 -20 0 163 0 163 53 7 c65 7 477 6 737 -2 l196 -7 69 -34
c86 -42 171 -125 208 -202 104 -212 7 -479 -210 -582 l-68 -32 -389 0 -388 0
-20 53 c-51 135 -165 250 -302 303 -198 76 -405 32 -557 -120 -212 -212 -215
-543 -6 -755 72 -73 175 -128 284 -151 88 -19 128 -19 216 1 139 31 252 104
321 208 l36 54 402 5 c337 3 413 7 462 21 256 72 445 226 555 451 70 143 85
206 85 350 0 223 -69 384 -237 562 l-70 74 69 67 c78 76 132 153 175 248 42
93 59 175 59 292 0 219 -62 387 -207 554 -110 128 -218 199 -396 261 l-92 32
-401 3 -401 4 -15 31 c-39 82 -171 194 -280 238 -66 27 -254 36 -333 16z m224
-357 c47 -24 74 -56 97 -117 15 -39 16 -52 5 -92 -29 -111 -162 -174 -260
-123 -19 9 -48 34 -65 55 -28 35 -31 46 -31 106 0 56 4 74 27 108 50 75 149
103 227 63z m16 -2443 c100 -57 118 -207 33 -283 -63 -58 -137 -69 -209 -31
-51 27 -85 72 -94 126 -13 77 33 168 100 197 48 21 124 17 170 -9z"/>
</g>
</svg>
